<svg version="1.1" xmlns="http://www.w3.org/2000/svg" viewBox="0 0 270.8 71" xml:space="preserve">
 <path fill="currentColor" d="M235.1,70.2h16.5V37.6c1.5-4.9,8.8-9.5,19.2-7.2v-16c-8.7,0-16.1,5.7-19.2,14.8V15.4h-16.5V70.2z M208.1,26.3
		c5,0,7.6,2.7,7.6,5.4c0,3.8-3.1,7.7-20.2,9.6C195.5,32.3,201.2,26.3,208.1,26.3z M229.3,65.2V50.6c-5.5,4.6-12.8,7.1-18.7,7.1
		c-6.1,0-11.1-3.3-13.5-8.5c21.7-1.5,32.3-9,32.3-19.5c0-8.4-8.7-15.6-20.7-15.6c-16,0-28.9,11.7-28.9,28.8c0,16.1,13.2,28,29.9,28
		C216.8,71,224,68.9,229.3,65.2z M167.7,53.2V26.3H179V15.6l-11.3,0.1V2.5l-31.3,22.1V5.4l-26.2,19.7v1.2h9.9v30
		c0,9.5,7,14.6,16.5,14.6c4.2,0,7.7-0.8,10.8-2.6V57c-1.5,0.9-3.4,1.5-5.5,1.5c-3.5,0-5.6-1.8-5.6-4.8V26.3h15v29.9
		c0,9.6,7,14.7,16.6,14.7c4.3,0,7.8-0.5,11.2-2.6V56.9c-1.4,0.9-3.6,1.6-5.8,1.6C169.9,58.5,167.7,56.6,167.7,53.2z M87.9,26.3
		c5,0,7.6,2.7,7.6,5.4c0,3.8-3.1,7.7-20.2,9.6C75.3,32.3,80.9,26.3,87.9,26.3z M109,65.2V50.6c-5.5,4.6-12.8,7.1-18.7,7.1
		c-6.1,0-11.1-3.3-13.5-8.5c21.7-1.5,32.3-9,32.3-19.5c0-8.4-8.7-15.6-20.7-15.6c-16,0-28.9,11.7-28.9,28.8c0,16.1,13.2,28,29.9,28
		C96.5,71,103.7,68.9,109,65.2z M29.5,40.8c5.1,0,9.4,3.2,9.4,8.5c0,5-4.3,8.1-9.4,8.1H17V40.8H29.5z M28.6,12.7
		c4.9,0,8.9,3.1,8.9,7.8c0,5-3.9,8.1-8.9,8.1H17V12.7H28.6z M0,0v70.2h33.1c12.7,0,22.7-7.8,22.7-19.6c0-7.6-4.8-13.6-11.8-16.4
		c6.4-2.9,10.6-8.4,10.6-15.1C54.5,7.6,44.5,0,31.7,0L0,0L0,0z"/>
</svg>
