<svg width="111" height="28" viewBox="0 0 111 28" fill="none" xmlns="http://www.w3.org/2000/svg">
<g clip-path="url(#clip0_1374_151)">
<path d="M1.07391 8.89504C0.770371 8.89504 0.520477 8.74574 0.325534 8.44713C0.108349 8.12664 -0.000244141 7.49724 -0.000244141 6.55894C-0.000244141 6.0042 0.0861066 5.65153 0.260117 5.50223C0.434126 5.35292 0.639537 5.27827 0.878964 5.27827C0.987556 5.27827 1.09615 5.28857 1.20474 5.31045C1.31333 5.31045 1.45464 5.31045 1.62734 5.31045C2.14806 5.31045 2.67925 5.26798 3.22221 5.18303C3.76517 5.0762 4.38271 4.89472 5.07744 4.63858C5.79311 4.36057 6.6069 3.97701 7.51751 3.48662C8.42812 2.97435 9.50227 2.31278 10.7387 1.5019C10.7609 1.5019 10.7818 1.5019 10.8041 1.5019C10.8472 1.48002 10.8904 1.46973 10.9336 1.46973C11.0631 1.46973 11.2162 1.5122 11.3889 1.59715C11.5629 1.6821 11.7356 1.79923 11.9096 1.94982C12.0836 2.07724 12.2236 2.21625 12.3322 2.36555C12.4617 2.51486 12.5272 2.65386 12.5272 2.78129C12.5272 2.84564 12.5167 2.88812 12.4945 2.90871C12.3649 3.52781 12.2236 4.05037 12.0719 4.47641C11.9201 4.88184 11.7788 5.24481 11.6493 5.56401C11.5407 5.86262 11.4425 6.15093 11.3562 6.42766C11.2908 6.68379 11.2581 6.9824 11.2581 7.32348C11.2581 7.40843 11.2803 7.45091 11.3235 7.45091C11.3235 7.45091 11.334 7.44061 11.3562 7.41873C11.4857 7.3119 11.7147 7.10982 12.0391 6.81122C12.3649 6.49073 12.7548 6.12776 13.2101 5.72361C13.6654 5.29629 14.1757 4.85996 14.7396 4.41076C15.3257 3.96285 15.9328 3.54712 16.5621 3.16227C17.1914 2.77871 17.8417 2.46852 18.5141 2.23427C19.2089 1.97813 19.8918 1.85071 20.5643 1.85071C21.1714 1.85071 21.7248 1.96784 22.2233 2.20338C22.744 2.41704 23.1889 2.72594 23.5578 3.13138C23.9268 3.51494 24.2081 3.98473 24.4043 4.53947C24.6215 5.07234 24.7301 5.65926 24.7301 6.30023C24.7301 7.21794 24.5561 8.19872 24.2094 9.24513C23.8836 10.2697 23.4283 11.3045 22.8422 12.3496C22.256 13.3948 21.5731 14.409 20.792 15.3898C20.0109 16.35 19.1762 17.2252 18.2865 18.0142C17.3968 18.8032 16.4757 19.4763 15.5207 20.0311C14.5669 20.5639 13.6222 20.9166 12.6894 21.0878C12.429 21.1303 12.1687 21.1624 11.9083 21.1843C11.6702 21.2062 11.4203 21.2165 11.1599 21.2165C10.596 21.2165 10.0858 21.1637 9.63048 21.0569C9.17518 20.9501 8.94753 20.748 8.94753 20.4481C8.94753 20.2988 8.98024 20.1495 9.04566 20.0002C9.11107 19.829 9.18696 19.6591 9.27331 19.4879C9.51143 18.9332 9.70768 18.4956 9.85945 18.1751C10.0335 17.8546 10.282 17.695 10.6078 17.695C10.6942 17.695 10.7818 17.7053 10.8682 17.7272C10.9768 17.749 11.0958 17.7696 11.2267 17.7915C11.4439 17.8559 11.7042 17.888 12.0077 17.888C12.6371 17.888 13.3527 17.6538 14.1547 17.184C14.979 16.6936 15.7601 16.0642 16.498 15.2958C17.2359 14.5068 17.8534 13.6097 18.3532 12.6071C18.8517 11.6044 19.1016 10.5799 19.1016 9.53473C19.1016 8.72385 18.8739 8.07258 18.4186 7.58219C17.9633 7.0918 17.3563 6.84597 16.5961 6.84597C15.7941 6.84597 14.9908 7.06992 14.1888 7.51784C13.4077 7.94516 12.7025 8.45614 12.0732 9.05464C11.4425 9.63126 10.9114 10.2285 10.477 10.8476C10.0649 11.4448 9.82674 11.9043 9.76132 12.2235C9.60955 12.8851 9.44732 13.6213 9.27331 14.4322C9.12154 15.2212 8.94753 16.0436 8.75259 16.897C8.55764 17.7297 8.35092 18.5612 8.13374 19.394C7.91655 20.2048 7.67843 20.9629 7.41807 21.667C6.94053 22.9258 6.48522 23.9503 6.05085 24.7393C5.63872 25.5283 5.24884 26.1474 4.87988 26.5953C4.51093 27.0432 4.14198 27.3418 3.77302 27.4911C3.42631 27.6623 3.07829 27.7473 2.73158 27.7473C2.16768 27.7473 1.74509 27.5658 1.46249 27.2028C1.17988 26.8399 1.03989 26.3379 1.03989 25.6982C1.03989 24.823 1.26754 23.8422 1.72285 22.7533C2.20039 21.6438 2.73158 20.4919 3.31772 19.2961C3.92479 18.1017 4.51093 16.8957 5.07483 15.6794C5.63872 14.4412 6.02992 13.257 6.2458 12.127C6.31121 11.8065 6.39756 11.3264 6.50616 10.6867C6.63568 10.0251 6.7011 9.39572 6.7011 8.79851C6.7011 8.32871 6.63568 7.93486 6.50616 7.61437C6.39756 7.27329 6.18038 7.0918 5.85591 7.06992C5.57331 7.06992 5.24884 7.19735 4.87988 7.45348C4.53317 7.68773 3.9575 7.98634 3.15548 8.34931C2.52617 8.62732 2.07087 8.78692 1.78826 8.8294C1.52921 8.87445 1.29109 8.89504 1.07391 8.89504Z" fill="currentColor"/>
<path d="M28.2734 17.7205C28.2734 17.7205 28.3585 17.2816 28.2629 16.8684C28.2224 16.6947 28.1622 16.5853 28.1086 16.5119C28.0811 16.4733 28.034 16.4128 27.962 16.3574C27.8534 16.2725 27.6912 16.23 27.474 16.23C26.9101 16.23 26.3894 16.4012 25.9118 16.7423C25.4565 17.0628 25.0549 17.5004 24.7082 18.0551C24.3615 18.6099 24.0789 19.2496 23.8617 19.9755C23.6445 20.7014 23.5032 21.4698 23.4391 22.2807C23.4391 23.0066 23.6131 23.5717 23.9598 23.9771C24.3065 24.3825 24.8599 24.5846 25.6188 24.5846C26.0963 24.5846 26.617 24.4997 27.1809 24.3285C27.7671 24.1367 28.3637 23.8806 28.9708 23.5601C29.5778 23.2396 30.1744 22.8766 30.7606 22.4712C31.3676 22.0439 31.9211 21.596 32.4196 21.1275C32.5713 21.0206 32.7453 20.8816 32.9403 20.7117C33.1352 20.5199 33.3197 20.4234 33.4937 20.4234C33.6232 20.4234 33.7214 20.5084 33.7868 20.6795C33.8731 20.8288 33.9163 20.9884 33.9163 21.1596C33.9163 21.5226 33.7868 21.9383 33.5264 22.4081C33.2661 22.8779 32.9076 23.358 32.4523 23.8484C31.997 24.3182 31.4658 24.7867 30.8574 25.2565C30.2503 25.7263 29.5988 26.142 28.9053 26.505C28.2329 26.8679 27.5277 27.1666 26.7897 27.4008C26.0518 27.6145 25.3362 27.7213 24.6414 27.7213C23.7086 27.7213 22.9066 27.6145 22.2341 27.4008C21.5838 27.1666 21.0409 26.8564 20.6065 26.4728C20.1944 26.0674 19.8908 25.6092 19.6959 25.0969C19.501 24.564 19.4028 24.0093 19.4028 23.4327C19.4028 22.2382 19.6632 21.0322 20.1839 19.8159C20.7046 18.5777 21.4203 17.4579 22.3322 16.4553C23.2428 15.4526 24.3065 14.6314 25.5207 13.9905C26.7348 13.3508 28.0484 13.0303 29.4575 13.0303C29.9782 13.0303 30.423 13.1371 30.792 13.3508C31.1819 13.5425 31.5076 13.7987 31.768 14.1192C31.9577 14.3367 32.1082 14.5722 32.2168 14.8245C32.2168 14.8245 32.2769 14.9635 32.3214 15.1115C32.4065 15.3947 32.5818 16.3368 32.0938 17.512C31.8635 18.068 31.611 18.4207 31.0523 19.0797C30.618 19.5919 30.13 20.1042 29.5883 20.6165C29.0453 21.1069 28.4932 21.5445 27.9293 21.9293C27.3654 22.3129 26.8225 22.6231 26.303 22.8573C25.7823 23.0916 25.3375 23.2087 24.9685 23.2087C24.9463 23.2087 24.8822 23.2087 24.7736 23.2087C24.665 23.2087 24.5355 23.1868 24.3837 23.1444C23.9493 23.0375 23.6249 22.8239 23.4077 22.5047C23.2127 22.1842 23.1146 21.9499 23.1146 21.8006C23.1146 21.6513 23.2127 21.5548 23.4077 21.5123C23.9716 21.4479 24.5472 21.278 25.1321 21C25.7182 20.722 26.2389 20.3912 26.6942 20.0077C27.0527 19.7052 27.491 19.3397 27.8652 18.727C28.1177 18.3113 28.2224 17.9843 28.2734 17.7205Z" fill="currentColor"/>
<path d="M46.3325 16.4522C46.5706 16.4522 46.7551 16.4947 46.8859 16.5797C47.0167 16.6646 47.0808 16.7612 47.0808 16.868C47.0808 16.9748 47.0154 17.0919 46.8859 17.2194C46.6033 17.518 46.322 17.9337 46.0394 18.4679C45.7568 19.0007 45.4964 19.5773 45.2583 20.1964C45.0202 20.7937 44.8239 21.3909 44.6722 21.9894C44.5204 22.5866 44.4445 23.0989 44.4445 23.5262C44.4445 23.7759 44.506 23.9484 44.6303 24.0449C44.7441 24.1337 44.8815 24.1337 44.9325 24.135C45.2007 24.1376 47.0049 23.8853 49.4228 20.8387C49.6491 20.5543 49.8231 20.3161 49.9278 20.172C50.0233 20.284 50.1476 20.4539 50.2536 20.6791C50.3255 20.8348 50.4001 20.9893 50.4001 21.0948C50.4001 21.4359 50.281 21.8517 50.0416 22.3433C49.8035 22.8131 49.5431 23.1967 49.2605 23.4953C48.0241 24.839 46.8309 25.8636 45.6809 26.5676C44.5531 27.2717 43.4358 27.6243 42.3289 27.6243C41.3307 27.6243 40.6582 27.3038 40.3115 26.6641C40.1374 26.3655 40.0302 25.9923 39.9857 25.5444C39.3564 26.1841 38.6185 26.7066 37.7733 27.1121C36.9268 27.5175 36.0057 27.7196 35.0074 27.7196C34.3781 27.7196 33.8247 27.4737 33.3484 26.9833C32.8709 26.493 32.5242 25.9266 32.307 25.2869C32.1552 24.9034 32.0793 24.4864 32.0793 24.0384C32.0793 22.6085 32.481 21.2223 33.283 19.8772C34.0863 18.5116 35.1487 17.3056 36.4715 16.2605C37.8164 15.1935 39.3564 14.3401 41.0925 13.7004C42.8496 13.0607 44.6722 12.7402 46.5588 12.7402C47.5348 12.7402 48.0987 13.0491 48.2505 13.6682C48.2937 13.7751 48.3368 13.9141 48.38 14.084C48.4232 14.2333 48.4454 14.3929 48.4454 14.5641C48.4454 14.9489 48.2505 15.1407 47.8593 15.1407C47.5989 15.1407 47.3176 15.0982 47.0128 15.0133C46.7302 14.9283 46.4384 14.8846 46.1336 14.8846C44.8972 14.8846 43.6935 15.1304 42.5212 15.6208C41.349 16.1112 40.3088 16.7521 39.3969 17.5411C38.5072 18.3301 37.7916 19.2157 37.2499 20.1977C36.707 21.1579 36.4361 22.1181 36.4361 23.0783C36.4361 23.3125 36.4898 23.5365 36.5984 23.7501C36.7279 23.9419 36.9883 24.0706 37.3794 24.1337C37.9002 24.1337 38.345 24.0063 38.714 23.7501C39.0829 23.494 39.4192 23.1632 39.7227 22.7578C40.0917 22.2455 40.3847 21.7332 40.6006 21.221C40.8387 20.7087 41.0559 20.2183 41.2508 19.7485C41.4458 19.2787 41.6525 18.8411 41.8697 18.4357C42.0869 18.0302 42.3799 17.6892 42.7476 17.4111C43.1165 17.1125 43.5823 16.8783 44.1462 16.7071C44.7166 16.5372 45.4428 16.4522 46.3325 16.4522Z" fill="currentColor"/>
<path d="M55.5825 17.3163C55.4739 17.252 55.3222 17.1773 55.1272 17.0924C54.9323 17.0074 54.7373 16.9212 54.5411 16.8362C54.3461 16.7513 54.1721 16.6869 54.0203 16.6445C53.8686 16.5801 53.76 16.5479 53.6946 16.5479C53.3479 17.4862 52.924 18.3833 52.4255 19.2367C51.9479 20.0901 51.439 20.8803 50.896 21.605C50.3753 22.309 49.8441 22.9281 49.3011 23.461C48.7804 23.9938 48.3147 24.4212 47.9025 24.7417C47.6199 24.9334 47.3713 25.0197 47.1541 24.9978C46.937 24.9553 46.7198 24.8485 46.5039 24.6773C46.2658 24.4855 46.2331 24.2616 46.4058 24.0054C46.5798 23.7493 46.8506 23.461 47.2196 23.1418C47.9575 22.5021 48.5868 21.8727 49.1075 21.2536C49.6282 20.6345 50.0613 20.0167 50.4093 19.3976C50.756 18.7785 51.0386 18.1607 51.2558 17.5416C51.473 16.9019 51.6679 16.2403 51.842 15.5569C51.6431 15.3561 51.3081 14.9622 51.1263 14.3727C50.9143 13.688 51.0282 13.1178 51.0936 12.805C51.2807 11.9182 51.7595 11.3287 52.0696 10.949C52.1703 10.8242 52.3967 10.5552 52.9161 10.0854C53.1987 9.82924 53.4473 9.62717 53.6645 9.47786C53.9026 9.32856 54.0766 9.25391 54.1852 9.25391C54.316 9.25391 54.4783 9.29638 54.6732 9.38133C54.8904 9.44568 55.0853 9.54093 55.2594 9.66964C55.4543 9.79706 55.6178 9.93607 55.7474 10.0854C55.8991 10.2347 55.975 10.3737 55.975 10.5011C55.975 10.5011 55.8991 10.6401 55.7474 10.9168C55.6178 11.173 55.4765 11.4716 55.3248 11.8127C55.1952 12.1538 55.0866 12.4845 54.999 12.805C54.9336 13.1036 54.9663 13.2851 55.0971 13.3495C55.9214 13.7768 56.7456 14.1707 57.5699 14.5336C58.3941 14.8747 59.2079 15.2274 60.0099 15.5903C60.2049 15.7178 60.3135 15.8568 60.3357 16.0061C60.3789 16.1335 60.3684 16.2841 60.303 16.454C60.2598 16.6252 60.184 16.8066 60.0754 16.9984C59.9668 17.1902 59.8686 17.382 59.7823 17.575C59.5442 18.0873 59.3048 18.6099 59.0666 19.1427C58.8285 19.6756 58.6113 20.2098 58.4164 20.7426C58.2214 21.2549 58.0579 21.7569 57.9284 22.2472C57.7975 22.717 57.7334 23.1431 57.7334 23.5279C57.7334 23.9333 57.8957 24.1367 58.2214 24.1367C58.3955 24.1367 58.6231 24.0518 58.9044 23.8806C59.187 23.7094 59.4905 23.497 59.815 23.2409C60.1617 22.9629 60.5084 22.6758 60.8565 22.3772C61.2254 22.0567 61.5617 21.7684 61.8652 21.5136C62.191 21.2356 62.4723 21.0116 62.7117 20.8417C62.972 20.6705 63.1565 20.5856 63.2651 20.5856C63.5687 20.5856 63.7204 20.7568 63.7204 21.0979C63.7204 21.3321 63.655 21.5998 63.5255 21.8984C63.4169 22.1752 63.2756 22.4635 63.1029 22.7621C62.6044 23.573 62.0183 24.277 61.3458 24.8742C60.6733 25.4714 59.9681 25.9837 59.2302 26.411C58.5145 26.8165 57.8093 27.1254 57.1146 27.339C56.4421 27.5308 55.856 27.6273 55.3575 27.6273C54.5332 27.6273 53.9798 27.4034 53.6985 26.9555C53.4159 26.5076 53.2759 25.9206 53.2759 25.1947C53.2759 24.64 53.3295 24.0312 53.4381 23.3709C53.5677 22.7093 53.7417 22.0374 53.9589 21.354C54.176 20.6705 54.4142 19.9884 54.6745 19.3049C54.9532 18.597 55.2567 17.9354 55.5825 17.3163Z" fill="currentColor"/>
<path d="M84.0029 21.3488C84.5236 20.8365 84.9031 20.5804 85.1425 20.5804C85.446 20.5804 85.5978 20.7516 85.5978 21.0927C85.5978 21.4131 85.467 21.8186 85.2066 22.309C84.9685 22.7994 84.7081 23.1945 84.4255 23.4931C83.2101 24.8369 82.0286 25.8614 80.8786 26.5654C79.7286 27.2695 78.6008 27.6221 77.4952 27.6221C76.9091 27.6221 76.4001 27.4188 75.9658 27.0146C75.5536 26.6092 75.3469 25.9373 75.3469 24.9977C75.3469 24.3143 75.4882 23.6321 75.7695 22.9487C76.073 22.2446 76.4198 21.583 76.8109 20.9639C77.2008 20.3449 77.5816 19.7901 77.9492 19.2997C78.3391 18.7875 78.6217 18.3923 78.7957 18.1156C78.9043 17.9444 78.9579 17.8273 78.9579 17.7642C78.9579 17.7011 78.9252 17.6677 78.8598 17.6677C78.534 17.6677 78.1114 17.8067 77.5907 18.0834C77.07 18.3614 76.5061 18.7772 75.899 19.3319C75.3129 19.8648 74.7281 20.5263 74.1419 21.3166C73.5558 22.085 73.0468 22.9705 72.6125 23.9732C72.3743 24.6129 72.1022 25.1998 71.7987 25.734C71.4951 26.2668 71.1589 26.6838 70.7899 26.9825C70.3556 27.366 69.912 27.5591 69.4554 27.5591C69.1519 27.5591 68.8915 27.5063 68.6743 27.3995C68.4794 27.2721 68.3054 27.133 68.1536 26.9837C68.0019 26.8344 67.8933 26.6851 67.8278 26.5358C67.7624 26.3865 67.7297 26.2797 67.7297 26.2153C67.7297 25.4263 67.871 24.6155 68.1523 23.7827C68.4559 22.95 68.8026 22.1713 69.1938 21.4466C69.5837 20.7001 69.9644 20.0282 70.332 19.4297C70.7232 18.8325 70.994 18.3846 71.1458 18.086C71.2322 17.9367 71.2753 17.8298 71.2753 17.7655C71.2753 17.7011 71.2426 17.669 71.1772 17.669C70.8737 17.669 70.4615 17.808 69.9408 18.0847C69.4201 18.3627 68.8562 18.7784 68.2491 19.3332C67.663 19.866 67.0782 20.5276 66.492 21.3179C65.9059 22.0863 65.3969 22.9718 64.9626 23.9745C64.7245 24.4868 64.5073 24.9668 64.3123 25.4148C64.1174 25.8421 63.9002 26.2153 63.6621 26.5345C63.4449 26.855 63.2068 27.1112 62.9464 27.3029C62.847 27.3686 62.741 27.4214 62.6324 27.4625C62.3825 27.5552 62.1719 27.5591 62.0685 27.5591C61.8814 27.5604 60.9787 27.5694 60.5718 26.9825C60.5116 26.8962 60.3912 26.6941 60.3768 26.1497C60.3559 25.3401 60.6424 24.7455 60.7353 24.3568C60.9093 23.6308 61.137 22.8315 61.4183 21.9563C61.7009 21.0811 61.9822 20.1955 62.2648 19.2997C62.5683 18.382 62.8509 17.5068 63.1113 16.6753C63.3716 15.822 63.577 15.0639 63.7301 14.4023C63.7955 14.1461 63.9682 13.9325 64.2508 13.7626C64.5544 13.5914 64.9011 13.4537 65.2923 13.3469C65.7044 13.24 66.1165 13.1654 66.5287 13.1229C66.963 13.0585 67.332 13.0264 67.6355 13.0264C67.8095 13.0264 67.9718 13.0367 68.1235 13.0585C68.2753 13.0585 68.4061 13.0907 68.5147 13.1551C68.7751 13.2619 68.9046 13.4756 68.9046 13.7948C68.9046 13.9441 68.8837 14.0934 68.8392 14.2427C68.796 14.3701 68.7529 14.4988 68.7084 14.6262C68.5134 15.0742 68.2858 15.5645 68.0254 16.0987C67.765 16.611 67.451 17.2185 67.0821 17.9225C67.6028 17.3253 68.1772 16.7706 68.8065 16.2583C69.4358 15.7254 70.0756 15.2659 70.7258 14.8824C71.3983 14.4988 72.0708 14.2002 72.7433 13.9865C73.4158 13.7523 74.0556 13.6352 74.6626 13.6352C75.1611 13.6352 75.5523 13.6879 75.8336 13.7948C76.1162 13.9016 76.3216 14.0509 76.4525 14.2427C76.5833 14.4345 76.6474 14.6481 76.6474 14.8824C76.6474 15.1166 76.5938 15.3843 76.4852 15.683C76.3988 15.961 76.2785 16.248 76.1267 16.5466C77.125 15.6933 78.1546 14.9995 79.2183 14.4666C80.282 13.9119 81.3117 13.6339 82.3099 13.6339C83.0478 13.6339 83.5686 13.751 83.8721 13.9853C84.1756 14.1989 84.3274 14.4975 84.3274 14.8811C84.3274 15.1153 84.2842 15.3612 84.1979 15.6173C84.1115 15.8734 83.9911 16.1502 83.8394 16.4501C83.579 16.9623 83.2532 17.5171 82.8634 18.1143C82.4735 18.6909 82.0718 19.2663 81.6597 19.8429C81.2475 20.4195 80.8681 20.9845 80.5214 21.5393C80.1747 22.0734 79.9248 22.5535 79.773 22.9796C79.6644 23.2357 79.6108 23.4596 79.6108 23.6514C79.633 23.9719 79.7953 24.1315 80.0988 24.1315C80.316 24.1315 80.5764 24.0569 80.8799 23.9076C81.2057 23.7364 81.5419 23.524 81.8886 23.2679C82.2353 22.9911 82.5938 22.6912 82.9628 22.372C83.3304 22.031 83.6771 21.6899 84.0029 21.3488Z" fill="currentColor"/>
<path d="M89.3756 9.92008C89.3756 9.59959 89.4619 9.30098 89.6359 9.02426C89.8309 8.72565 90.0703 8.47981 90.3516 8.28803C90.6342 8.07437 90.9482 7.90447 91.2949 7.77576C91.6639 7.64834 92.0211 7.58398 92.3691 7.58398C92.9761 7.58398 93.4432 7.74359 93.7677 8.06407C94.0935 8.36268 94.2557 8.71535 94.2557 9.12079C94.2557 9.65365 94.0176 10.1453 93.54 10.5932C93.0847 11.0412 92.564 11.3398 91.9779 11.4891C91.7175 11.5534 91.4794 11.5856 91.2622 11.5856C90.6761 11.5856 90.2103 11.4144 89.8623 11.0733C89.5391 10.731 89.3756 10.3461 89.3756 9.92008ZM91.3931 13.5047C91.6312 13.5047 91.8274 13.5587 91.9792 13.6643C92.131 13.7492 92.2068 13.8561 92.2068 13.9848C92.2068 14.0916 92.1414 14.219 92.0119 14.3683C91.8379 14.5601 91.5239 15.0196 91.0686 15.7442C90.6342 16.4483 90.1907 17.2592 89.7341 18.1769C89.2788 19.0946 88.8666 20.0445 88.4977 21.0252C88.151 21.9854 87.977 22.8182 87.977 23.5222C87.977 23.9277 88.1392 24.131 88.465 24.131C88.6599 24.131 88.8993 24.0461 89.1806 23.8749C89.4842 23.7037 89.7995 23.4913 90.124 23.2352C90.4707 22.9572 90.8187 22.6702 91.1654 22.3715C91.5343 22.0511 91.8706 21.7627 92.1741 21.5079C92.4777 21.2299 92.7485 21.0059 92.9879 20.836C93.226 20.6648 93.4 20.5799 93.5086 20.5799C93.8122 20.5799 93.9639 20.7511 93.9639 21.0922C93.9639 21.2633 93.9312 21.4551 93.8658 21.6688C93.8004 21.8824 93.714 22.0961 93.6055 22.3085C93.4969 22.5427 93.3673 22.768 93.2156 22.9803C93.0847 23.1721 92.9447 23.3433 92.793 23.4926C91.5775 24.8364 90.3961 25.8609 89.2461 26.5649C88.096 27.269 86.9682 27.6216 85.8614 27.6216C85.0371 27.6216 84.4837 27.3977 84.2024 26.9498C83.9211 26.5019 83.7798 25.9149 83.7798 25.189C83.7798 24.4631 83.8779 23.62 84.0729 22.6599C84.2469 21.6778 84.485 20.697 84.7885 19.715C85.0921 18.7329 85.4388 17.8049 85.83 16.9309C86.2421 16.0351 86.6647 15.2873 87.0991 14.6901C87.2299 14.5189 87.468 14.3593 87.8147 14.21C88.1837 14.0607 88.5853 13.9333 89.0184 13.8264C89.4737 13.7196 89.9185 13.645 90.3529 13.6025C90.786 13.5368 91.1327 13.5047 91.3931 13.5047Z" fill="currentColor"/>
<path d="M99.1883 1.37689C99.2537 1.12076 99.4382 0.907099 99.7417 0.737201C100.045 0.566016 100.393 0.428296 100.783 0.321466C101.174 0.214636 101.575 0.139984 101.987 0.0975095C102.421 0.0331542 102.801 0.000976562 103.125 0.000976562C103.429 0.000976562 103.711 0.0331542 103.972 0.0975095C104.254 0.161865 104.394 0.375524 104.394 0.737201C104.394 0.908386 104.372 1.05769 104.329 1.18511C104.286 1.31254 104.231 1.45154 104.167 1.60085C103.928 2.17747 103.57 3.03082 103.092 4.1609C102.637 5.27039 102.127 6.52918 101.563 7.93727C100.999 9.32606 100.402 10.7869 99.7744 12.3237C99.1451 13.8605 98.559 15.333 98.0173 16.7411C97.388 18.3409 96.8673 19.7503 96.4552 20.9666C96.043 22.183 95.8363 23.0363 95.8363 23.5267C95.8363 23.9321 95.9986 24.1355 96.3243 24.1355C96.5193 24.1355 96.7587 24.0505 97.04 23.8794C97.3435 23.7082 97.6589 23.4958 97.9833 23.2397C98.33 22.9617 98.6781 22.6746 99.0248 22.376C99.3937 22.0555 99.73 21.7672 100.033 21.5124C100.337 21.2344 100.608 21.0104 100.847 20.8405C101.085 20.6693 101.259 20.5844 101.368 20.5844C101.672 20.5844 101.823 20.7556 101.823 21.0966C101.823 21.7801 101.552 22.4841 101.01 23.2088C100.467 23.9128 99.8268 24.5641 99.0902 25.1613C98.3523 25.7379 97.6039 26.2386 96.8451 26.6659C96.0862 27.0714 95.4896 27.3275 95.0552 27.4343C94.6209 27.5631 94.1773 27.6261 93.7207 27.6261C92.8965 27.6261 92.343 27.4022 92.0618 26.9543C91.7792 26.5063 91.6392 25.9194 91.6392 25.1935C91.6392 24.4251 91.7373 23.5936 91.9322 22.6965C92.1062 21.7788 92.3444 20.8405 92.6479 19.8803C92.9305 18.9201 93.2445 17.9497 93.5912 16.9676C93.9602 15.9855 94.3291 15.0369 94.6981 14.1192C95.8481 11.2606 96.8019 8.77389 97.562 6.66175C98.3209 4.52515 98.8625 2.76439 99.1883 1.37689ZM105.794 2.78499C105.86 2.52885 106.044 2.31519 106.348 2.14529C106.651 1.97411 106.998 1.83639 107.389 1.72956C107.779 1.62273 108.181 1.54808 108.593 1.5056C109.027 1.44125 109.406 1.40907 109.731 1.40907C110.034 1.40907 110.317 1.44125 110.577 1.5056C110.859 1.56996 111 1.78362 111 2.14529C111 2.31648 110.978 2.46578 110.935 2.59321C110.891 2.72063 110.837 2.85964 110.772 3.00894C110.534 3.58557 110.186 4.36427 109.731 5.34504C109.297 6.30522 108.798 7.40441 108.234 8.64132C107.693 9.85763 107.106 11.1589 106.477 12.5464C105.87 13.9339 105.294 15.3304 104.753 16.7398C104.123 18.3397 103.603 19.749 103.191 20.9654C102.778 22.1817 102.572 23.035 102.572 23.5254C102.572 23.9308 102.734 24.1342 103.06 24.1342C103.255 24.1342 103.494 24.0493 103.775 23.8781C104.079 23.7069 104.394 23.4945 104.719 23.2384C105.065 22.9604 105.412 22.6733 105.76 22.3747C106.129 22.0542 106.465 21.7659 106.769 21.5111C107.072 21.2331 107.343 21.0091 107.583 20.8392C107.821 20.668 107.995 20.5831 108.103 20.5831C108.407 20.5831 108.559 20.7543 108.559 21.0954C108.559 21.7788 108.288 22.4829 107.745 23.2075C107.202 23.9115 106.562 24.5628 105.826 25.16C105.088 25.7367 104.339 26.2373 103.58 26.6647C102.822 27.0701 102.225 27.3262 101.791 27.4331C101.356 27.5618 100.911 27.6248 100.456 27.6248C99.6318 27.6248 99.0784 27.4009 98.7971 26.953C98.5145 26.5051 98.3745 25.9181 98.3745 25.1922C98.3745 24.4238 98.4609 23.5923 98.6349 22.6952C98.8298 21.7775 99.0693 20.8392 99.3505 19.879C99.6541 18.9189 99.9799 17.9484 100.327 16.9663C100.696 15.9843 101.064 15.0357 101.433 14.118C101.997 12.688 102.508 11.4292 102.963 10.3416C103.44 9.2321 103.853 8.23974 104.199 7.36451C104.568 6.46868 104.882 5.65781 105.143 4.93188C105.403 4.18278 105.62 3.46844 105.794 2.78499Z" fill="currentColor"/>
</g>
<defs>
<clipPath id="clip0_1374_151">
<rect width="111" height="27.75" fill="white"/>
</clipPath>
</defs>
</svg>
